<svg xmlns="http://www.w3.org/2000/svg" width="1200" height="420" viewBox="0 0 1200 420" role="img" aria-labelledby="title desc">
  <title id="title">AVRXT profile banner</title>
  <desc id="desc">Independent developer and aircraft maintenance engineer, based in India.</desc>
  <defs>
    <pattern id="grid" width="40" height="40" patternUnits="userSpaceOnUse"><path d="M40 0H0V40" fill="none" stroke="#1f1f1f" stroke-width="1"/></pattern>
    <radialGradient id="glow" cx="50%" cy="50%" r="50%"><stop offset="0" stop-color="#ffffff" stop-opacity=".09"/><stop offset="1" stop-color="#ffffff" stop-opacity="0"/></radialGradient>
    <filter id="soft" x="-20%" y="-20%" width="140%" height="140%"><feGaussianBlur stdDeviation="14"/></filter>
  </defs>
  <rect width="1200" height="420" rx="18" fill="#000000"/>
  <rect x="1" y="1" width="1198" height="418" rx="17" fill="none" stroke="#292929" stroke-width="2"/>
  <rect width="1200" height="420" rx="18" fill="url(#grid)" opacity=".58"/>
  <circle cx="1000" cy="92" r="245" fill="url(#glow)"/>
  <circle cx="110" cy="390" r="150" fill="#ffffff" opacity=".025" filter="url(#soft)"/>
  <path d="M32 58V32H58 M1142 32h26v26 M32 362v26h26 M1168 362v26h-26" fill="none" stroke="#666666" stroke-width="2"/>
  <g fill="#858585" font-family="ui-monospace, SFMono-Regular, Menlo, Consolas, monospace" font-size="12" letter-spacing="3"><text x="34" y="86">IDENTITY / 01</text><text x="954" y="386">WWW.AVRXT.DEV</text></g>
  <g font-family="Arial, Helvetica, sans-serif"><text x="72" y="185" fill="#f7f7f7" font-size="104" font-weight="700" letter-spacing="-7">AVRXT</text><text x="78" y="232" fill="#a3a3a3" font-size="16" letter-spacing="3.7">INDEPENDENT DEVELOPER × AIRCRAFT MAINTENANCE ENGINEER</text></g>
  <path d="M74 253c92-10 184 11 279-2 87-12 146 7 226-1" fill="none" stroke="#dedede" stroke-width="3" stroke-linecap="round"/>
  <path d="M92 261c116-3 228 8 399 0" fill="none" stroke="#484848" stroke-width="1.5" stroke-linecap="round"/>
  <g font-family="ui-monospace, SFMono-Regular, Menlo, Consolas, monospace" font-size="13" letter-spacing="2">
    <g transform="rotate(-2 125 310)"><rect x="74" y="288" width="134" height="38" fill="#080808" stroke="#484848"/><text x="94" y="312" fill="#bcbcbc">TYPESCRIPT</text></g>
    <g><rect x="222" y="288" width="112" height="38" fill="#f7f7f7"/><text x="246" y="312" fill="#080808">NEXT.JS</text></g>
    <g transform="rotate(2 405 307)"><rect x="348" y="288" width="126" height="38" fill="#080808" stroke="#484848" stroke-dasharray="4 4"/><text x="371" y="312" fill="#bcbcbc">WEB / UI</text></g>
  </g>
  <g transform="translate(865 203) rotate(-8)" fill="none" stroke-linecap="round" stroke-linejoin="round"><ellipse rx="169" ry="97" stroke="#484848" stroke-width="2" stroke-dasharray="8 11"/><ellipse rx="112" ry="151" stroke="#292929" stroke-width="2" transform="rotate(58)"/><circle r="77" stroke="#686868" stroke-width="2"/><rect x="-35" y="-35" width="70" height="70" stroke="#d0d0d0" stroke-width="2" transform="rotate(45)"/><circle cx="169" cy="0" r="6" fill="#f7f7f7" stroke="none"/><circle cx="-63" cy="-64" r="4" fill="#858585" stroke="none"/></g>
  <text x="812" y="219" fill="#f7f7f7" font-family="Arial, Helvetica, sans-serif" font-size="42" font-weight="700" letter-spacing="-3">AV</text>
  <g transform="translate(827 78) rotate(-7)" fill="none" stroke="#bcbcbc" stroke-width="2" stroke-linecap="round" stroke-linejoin="round"><path d="M0 23 35 17 57 0l8 1-10 17 32 2 12-7 5 1-7 10 7 10-5 1-12-7-32 2 10 17-8 1-22-17L0 25Z"/><path d="M112 24h56" stroke="#484848" stroke-dasharray="4 7"/></g>
  <g fill="#858585" font-family="ui-monospace, SFMono-Regular, Menlo, Consolas, monospace" font-size="11" letter-spacing="2"><text x="750" y="342" transform="rotate(-7 750 342)">BUILD WITH PRECISION →</text><text x="1037" y="115" transform="rotate(9 1037 115)">INDIA / IST</text></g>
  <path d="M744 354c54 22 111 16 160-15" fill="none" stroke="#686868" stroke-width="2" stroke-linecap="round"/><path d="m894 333 14 4-9 12" fill="none" stroke="#686868" stroke-width="2" stroke-linecap="round" stroke-linejoin="round"/>
  <g fill="#d0d0d0"><path d="m680 71 3 8 8 3-8 3-3 8-3-8-8-3 8-3Z"/><path d="m1088 300 2 6 6 2-6 2-2 6-2-6-6-2 6-2Z" opacity=".65"/></g>
</svg>
